#N canvas 259 2112 740 613 12;
#X floatatom 98 116 5 0 0 0 - - - 0;
#X obj 79 60 notein;
#X obj 38 89 stripnote;
#X floatatom 38 116 4 0 0 0 - - - 0;
#X floatatom 181 89 3 0 0 0 - - - 0;
#X floatatom 151 89 3 0 0 0 - - - 0;
#X obj 165 60 ctlin;
#X obj 38 142 bng 20 250 50 0 empty empty empty 17 7 0 10 #dfdfdf #000000 #000000;
#X obj 151 116 bng 20 250 50 0 empty empty empty 17 7 0 10 #dfdfdf #000000 #000000;
#X obj 77 388 noteout;
#X floatatom 58 304 5 0 0 0 - - - 0;
#X floatatom 106 305 5 0 0 0 - - - 0;
#X floatatom 151 306 5 0 0 0 - - - 0;
#X text 42 19 --- MIDI Test - INPUT ---;
#X text 42 259 --- MIDI Test - OUTPUT ---;
#X connect 1 0 2 0;
#X connect 1 1 2 1;
#X connect 2 0 3 0;
#X connect 2 1 0 0;
#X connect 3 0 7 0;
#X connect 5 0 8 0;
#X connect 6 0 5 0;
#X connect 6 1 4 0;
#X connect 10 0 9 0;
#X connect 11 0 9 1;
#X connect 12 0 9 2;
